<svg xmlns="http://www.w3.org/2000/svg" width="512" height="512" viewBox="0 0 512 512"><g><path d="M496,488H472V208a8,8,0,0,0-8-8H360V104a8,8,0,0,0-8-8H336V56a8,8,0,0,0-8-8H294.73C290.94,36.24,278.98,27.09,264,24.65V16a8,8,0,0,0-16,0v8.65C233.02,27.09,221.06,36.24,217.27,48H184a8,8,0,0,0-8,8V96H160a8,8,0,0,0-8,8v96H48a8,8,0,0,0-8,8V488H16a8,8,0,0,0,0,16H496a8,8,0,0,0,0-16Zm-344,0H56V424h96Zm0-80H56V216h96ZM192,64h32a8,8,0,0,0,8-8c0-8.67,10.99-16,24-16s24,7.33,24,16a8,8,0,0,0,8,8h32v8H192Zm0,24H320v8H192ZM320,488H192v-8H320ZM216,464V384h32v80Zm48,0V384h32v80Zm80,24h-8V472a8,8,0,0,0-8-8H312V376a8,8,0,0,0-8-8H208a8,8,0,0,0-8,8v88H184a8,8,0,0,0-8,8v16h-8V112H344Zm112,0H360V424h96Zm0-80H360V216h96Z"></path><path d="M184,360H328a8,8,0,0,0,8-8V328a8,8,0,0,0-8-8V256a8,8,0,0,0-8-8H192a8,8,0,0,0-8,8v64a8,8,0,0,0-8,8v24A8,8,0,0,0,184,360Zm136-16H192v-8H320Zm-8-24H264V264h48ZM200,264h48v56H200Z"></path><path d="M184,232H328a8,8,0,0,0,8-8V200a8,8,0,0,0-8-8V128a8,8,0,0,0-8-8H192a8,8,0,0,0-8,8v64a8,8,0,0,0-8,8v24A8,8,0,0,0,184,232Zm136-16H192v-8H320Zm-8-24H264V136h48ZM200,136h48v56H200Z"></path><path d="M80,296h48a8,8,0,0,0,8-8V240a8,8,0,0,0-8-8H80a8,8,0,0,0-8,8v48A8,8,0,0,0,80,296Zm8-48h32v32H88Z"></path><path d="M384,296h48a8,8,0,0,0,8-8V240a8,8,0,0,0-8-8H384a8,8,0,0,0-8,8v48A8,8,0,0,0,384,296Zm8-48h32v32H392Z"></path><path d="M80,376h48a8,8,0,0,0,8-8V320a8,8,0,0,0-8-8H80a8,8,0,0,0-8,8v48A8,8,0,0,0,80,376Zm8-48h32v32H88Z"></path><path d="M384,376h48a8,8,0,0,0,8-8V320a8,8,0,0,0-8-8H384a8,8,0,0,0-8,8v48A8,8,0,0,0,384,376Zm8-48h32v32H392Z"></path></g></svg>